<?xml version="1.0" standalone="no"?><!DOCTYPE svg PUBLIC "-//W3C//DTD SVG 1.1//EN" "http://www.w3.org/Graphics/SVG/1.1/DTD/svg11.dtd"><svg t="1629794745403" class="icon" viewBox="0 0 1024 1024" version="1.1" xmlns="http://www.w3.org/2000/svg" p-id="5700" xmlns:xlink="http://www.w3.org/1999/xlink" width="200" height="200"><defs><style type="text/css"></style></defs><path d="M1024 0v1024H0V0z" fill="#F5F5F5" p-id="5701"></path><path d="M723.263043 716.912076c116.55892 67.245531 116.55892 176.706312 0 243.951842a466.982853 466.982853 0 0 1-422.526086 0c-116.55892-67.245531-116.55892-176.706312 0-243.951842a466.982853 466.982853 0 0 1 422.526086 0z" fill="#080A0D" p-id="5702"></path><path d="M709.813937 725.878147c108.340022 62.388909 108.340022 164.004378 0 226.393287a433.360088 433.360088 0 0 1-392.265597 0c-108.340022-62.388909-108.340022-164.004378 0-226.393287a433.360088 433.360088 0 0 1 392.265597 0z" fill="#0B0E14" p-id="5703"></path><path d="M693.002554 734.470631c100.121124 57.905874 100.121124 151.302444 0 209.208318a400.110908 400.110908 0 0 1-362.005108 0c-100.121124-57.905874-100.121124-151.302444 0-209.208318a399.737322 399.737322 0 0 1 362.005108 0z" fill="#0F131B" p-id="5704"></path><path d="M677.685516 743.436702c91.528639 53.049252 91.528639 138.600511 0 191.649763a366.488143 366.488143 0 0 1-331.744619 0c-91.528639-53.049252-91.528639-138.600511 0-191.649763a366.488143 366.488143 0 0 1 331.744619 0z" fill="#131822" p-id="5705"></path><path d="M662.742065 752.029186c83.309741 48.19263 83.309741 125.898577 0 174.091208a332.865378 332.865378 0 0 1-301.110544 0c-83.309741-48.19263-83.309741-125.898577 0-174.091208a332.865378 332.865378 0 0 1 301.110544 0z" fill="#171D29" p-id="5706"></path><path d="M647.425027 760.995257c74.717256 43.336009 74.717256 112.075885 0 156.532653a298.869026 298.869026 0 0 1-270.850054 0c-74.717256-43.336009-74.717256-112.075885 0-156.532653a298.869026 298.869026 0 0 1 270.850054 0z" fill="#1B2230" p-id="5707"></path><path d="M632.481576 769.587742c66.498358 37.358628 66.498358 100.49471 0 138.974097a265.619847 265.619847 0 0 1-240.589566 0c-66.498358-37.358628-66.498358-100.49471 0-138.974097a265.619847 265.619847 0 0 1 240.589566 0z" fill="#1F2737" p-id="5708"></path><path d="M617.164538 778.553812c57.905874 33.622765 57.905874 87.792776 0 121.415542a231.997081 231.997081 0 0 1-210.329076 0c-57.905874-33.622765-57.905874-87.792776 0-121.415542a232.370668 232.370668 0 0 1 210.329076 0z" fill="#232C3F" p-id="5709"></path><path d="M601.847501 787.146297c49.686976 28.766144 49.686976 74.717256 0 103.856986a198.747902 198.747902 0 0 1-179.695002 0c-49.686976-28.766144-49.686976-74.717256 0-103.856986a198.747902 198.747902 0 0 1 179.695002 0z" fill="#273246" p-id="5710"></path><path d="M586.90405 796.112368a45.577526 45.577526 0 0 1 0 86.298431 165.125137 165.125137 0 0 1-149.434513 0 45.577526 45.577526 0 0 1 0-86.298431 165.125137 165.125137 0 0 1 149.434513 0z" fill="#2B374D" p-id="5711"></path><path d="M571.587012 804.704852a37.358628 37.358628 0 0 1 0 68.739876 131.502371 131.502371 0 0 1-119.174024 0 37.358628 37.358628 0 0 1 0-68.739876 131.502371 131.502371 0 0 1 119.174024 0z" fill="#2F3C54" p-id="5712"></path><path d="M556.269974 813.670923a26.898212 26.898212 0 0 1 0 51.181321 97.879606 97.879606 0 0 1-88.913535 0 26.898212 26.898212 0 0 1 0-51.181321 97.879606 97.879606 0 0 1 88.913535 0z" fill="#34415C" p-id="5713"></path><path d="M541.326523 821.889821a17.932142 17.932142 0 0 1 0 33.622766 64.630427 64.630427 0 0 1-58.27946 0 17.932142 17.932142 0 0 1 0-33.622766 64.630427 64.630427 0 0 1 58.27946 0z" fill="#384763" p-id="5714"></path><path d="M249.929223 532.734039v2.241517l-8.966071 5.230208V512.186793l186.793141-108.340022v28.018971l-102.362641 59.026633H304.099234l-37.358628 20.920832H261.510398a28.766144 28.766144 0 0 0-13.07552 20.920832z m37.358628-22.041591z m-2.241518 0z m-2.241517 0z m-2.241518 0z m-2.241518 0z m-2.241517 0z m-4.109449 0z m-1.867932 0z m0 0z m0 0z" fill="#677475" p-id="5715"></path><path d="M277.948194 537.59066l35.864283-20.920831-35.864283 20.920831z" fill="#CCCCCC" p-id="5716"></path><path d="M313.812477 558.511492v0.373586l1.120759 1.494346 0.747173 1.494345 1.120758 1.494345 0.747173 1.494345 1.120759 1.494345 1.120759 1.120759 1.120759 1.494345 1.120758 1.120759 1.120759 1.120759 1.494345 1.120759 1.120759 1.494345 1.120759 0.747172 1.494345 1.120759 1.120759 1.120759 1.494345 0.747173 1.120759 0.747172 1.494345 0.747173 1.120759 0.747172 1.494345 0.373587 1.120759 0.373586 1.120759 0.373586 1.494345 0.373586 1.120759 0.373587h5.603794l1.120759-0.373587 0.747172-0.373586 1.120759-0.373586 0.747173-0.373586-35.864283 20.547245-1.120759 0.747173-0.747173 0.373586-1.120758 0.373586h-0.747173l-1.120759 0.373586H306.340752l-1.120759-0.373586h-1.494345l-1.120759-0.373586-1.120759-0.373586-1.120759-0.373587-1.494345-0.747172-1.494345-0.747173-1.120759-0.373586-1.494345-1.120759-1.120759-0.747172-1.494345-0.747173-1.120759-1.120759-1.120759-1.120759-1.494345-1.120759-1.120759-1.120758-1.120759-1.120759-1.120759-1.494345-1.120758-1.120759-1.120759-1.494345-1.120759-1.120759-1.120759-1.494345-0.747172-1.494345-1.120759-1.494346-0.747173-1.494345-0.373586-0.373586-0.747173-1.494345-0.747172-1.494345-0.747173-1.867932-0.747172-1.494345-0.747173-1.494345-0.373586-1.494345-0.747173-1.867932-0.373586-1.494345-0.373586-1.494345-0.373587-1.494345-0.373586-1.867931-0.373586-1.494345v-1.494346l-0.373587-1.494345v-5.97738l0.373587-1.494345v-1.494345l0.373586-1.120759 0.373586-1.120759 0.373587-1.120759 0.373586-1.120759 0.747172-1.120759 0.373587-0.747172 0.747172-1.120759 0.747173-0.747173 0.747172-0.747172 0.747173-0.747173 0.747173-0.747172 0.747172-0.373587 35.864283-20.920831-0.747172 0.747172-0.747173 0.747173-0.747172 0.373586-0.747173 0.747173-0.747173 1.120758-0.747172 0.747173-0.373586 0.747172-0.747173 1.120759-0.373586 1.120759-0.373587 1.120759-0.373586 1.494345-0.373586 1.120759v1.120759l-0.373586 1.494345v5.97738l0.373586 1.494346v1.867931l0.373586 1.494345 0.373586 1.494345 0.373587 1.494345 0.373586 1.867932 0.747173 1.494345 0.373586 1.494345 0.747172 1.494345 0.373587 1.867932 0.747172 1.494345 0.747173 1.494345 0.747172 1.494345 1.120759 1.494345z" fill="#677475" p-id="5717"></path><path d="M365.367384 529.371762l-1.494345-2.98869-1.867931-2.615104-1.867932-2.615104-1.867931-2.615104-1.867932-2.615104-1.867931-2.241518-1.867931-2.241517-2.241518-2.615104-2.241518-2.241518-1.867931-1.867932-2.241518-2.241517-2.615104-1.867932-2.241518-1.494345-2.241517-1.867931-2.241518-1.494345-2.615104-1.494345-2.241518-1.494346-2.615104-1.120758-2.241517-1.120759-2.241518-0.747173-2.241518-0.747172-2.241517-0.373587-2.241518-0.373586-2.241518-0.373586h-5.97738l-1.867932 0.373586-1.867931 0.373586-1.867932 0.747173-1.494345 0.747172-1.867931 0.747173-35.864283 20.920832 1.494345-1.120759 1.867931-0.747173 1.867932-0.373586 1.867931-0.373586 1.867932-0.373586 1.867931-0.373587h4.109449l2.241518 0.373587 1.867931 0.373586 2.615104 0.747172 2.241518 0.747173 2.241518 0.747173 2.241517 1.120758 2.615104 1.120759 2.241518 1.120759 2.241518 1.494345 2.615104 1.494345 2.241517 1.867932 2.241518 1.867931 2.241518 1.867932 2.241517 1.867931 2.241518 2.241518 2.241518 2.241517 1.867931 2.241518 2.241518 2.241518 1.867931 2.615104 1.867932 2.615104 1.867931 2.615104 1.867932 2.615104 1.867931 2.615104 1.494345 2.615104 0.747173 1.494345 0.747172 1.494345 0.747173 1.494345 0.747172 1.120759 0.747173 1.494345 0.747172 1.494345 0.747173 1.494345 0.373586 1.494345 0.747173 1.120759 0.747172 1.494345 0.373587 1.494346 0.747172 1.494345 0.373587 1.494345 0.373586 1.494345 0.747172 1.494345 0.373587 1.494345 0.373586 1.494345 0.373586 1.494345 0.373587 1.494346 0.373586 1.494345 0.373586 1.494345 0.373586 1.494345v1.494345l0.373587 1.120759 0.373586 1.494345v1.494345l0.373586 1.494345v2.988691l0.373587 1.494345V599.232397l-0.373587 2.615104-0.373586 2.241518-0.373586 2.615104-0.373587 2.241517-0.747172 2.241518-0.747173 2.241518-0.747172 1.867931-1.120759 1.867931-0.747173 1.867932-1.120759 1.494345-1.494345 1.494345-1.120759 1.494345-1.494345 1.120759-1.494345 1.120759-1.494345 1.120759 35.864283-20.920832 1.494345-1.120759 1.494345-1.120759 1.494346-1.120759 1.494345-1.494345 1.120759-1.494345 1.120758-1.494345 1.120759-1.867931 0.747173-1.867932 0.747172-1.867931 0.747173-2.241518 0.747172-1.867931 0.373587-2.615104 0.373586-2.241518 0.373586-2.615104 0.373587-2.615104V571.213426l-0.373587-1.494345v-1.494346l-0.373586-1.120758v-1.494345l-0.373586-1.494346v-1.494345l-0.373587-1.494345-0.373586-1.494345-0.373586-1.494345-0.373586-1.494345-0.373587-1.494345-0.373586-1.494346-0.373586-1.494345-0.373586-1.494345-0.373587-1.120759-0.747172-1.494345-0.373587-1.494345-0.747172-1.494345-0.373586-1.494345-0.747173-1.494345-0.373586-1.494345-0.747173-1.494346-0.747172-1.494345-0.747173-1.120759-0.747173-1.494345-0.747172-1.494345-0.747173-1.494345-0.747172-1.494345-0.747173-1.120759z" fill="#30383B" p-id="5718"></path><path d="M329.503101 549.919008a96.011675 96.011675 0 0 0-33.249179-35.117111 32.875593 32.875593 0 0 0-34.743524-3.362276 32.875593 32.875593 0 0 0-13.822693 30.260488 103.856987 103.856987 0 0 0 47.071872 81.44181 32.875593 32.875593 0 0 0 33.249179 3.362277 32.875593 32.875593 0 0 0 15.317038-28.766144 96.011675 96.011675 0 0 0-13.822693-46.324699z m-14.943451 8.592484a53.049252 53.049252 0 0 1 7.471725 25.403867 15.690624 15.690624 0 0 1-25.777453 14.943452 53.049252 53.049252 0 0 1-18.305728-19.426487 52.675666 52.675666 0 0 1-7.471726-25.030281 18.305728 18.305728 0 0 1 7.471726-16.811383 18.305728 18.305728 0 0 1 18.305728 0 53.049252 53.049252 0 0 1 18.305728 22.788764z" fill="#4E5A5E" p-id="5719"></path><path d="M314.933236 557.390733a50.434148 50.434148 0 0 0-16.06421-18.305728 17.184969 17.184969 0 0 0-17.558555 0 17.184969 17.184969 0 0 0-7.09814 16.064211 50.060562 50.060562 0 0 0 7.09814 23.909522A50.434148 50.434148 0 0 0 298.869026 597.738052a14.943451 14.943451 0 0 0 24.656695-14.196279 50.060562 50.060562 0 0 0-8.592485-26.15104z" fill="#E6EAEB" p-id="5720"></path><path d="M481.179132 675.817585l8.218898-4.483036V672.455308l-8.966071 5.230208v-2.241517z m82.188982-47.445458l105.724918-60.894564v2.241518l-102.362642 59.026632h-1.867931z" fill="#677475" p-id="5721"></path><path d="M517.043415 675.817585l35.864283-20.920832-35.864283 20.920832z" fill="#CCCCCC" p-id="5722"></path><path d="M552.907698 696.738417v0.373586l1.120759 1.494345 0.747172 1.494345 1.120759 1.494345 1.120759 1.494345 0.747173 1.120759 1.120758 1.494345 1.120759 1.120759 1.120759 1.494345 1.120759 1.120759 1.494345 1.120759 1.120759 1.120759 1.120759 1.120759 1.494345 1.120759 1.120759 0.747172 1.494345 0.747173 1.120759 1.120759 1.494345 0.747172 1.120759 0.373586 1.494345 0.747173 1.120759 0.373586 1.494345 0.373587 1.120759 0.373586h1.120759l1.120758 0.373586h3.362277l1.120759-0.373586h1.120759l0.747172-0.373586 1.120759-0.373587 0.747173-0.747172-35.864284 20.920832-0.747172 0.373586-1.120759 0.373586-1.120759 0.373586-0.747172 0.373587h-5.603795l-1.120758-0.373587h-1.494346l-1.120758-0.373586-1.120759-0.747172-1.494345-0.373587-1.120759-0.747172-1.494345-0.747173-1.494345-0.747172-1.120759-0.747173-1.494345-1.120759-1.120759-1.120759-1.120759-0.747172-1.120759-1.120759-1.494345-1.120759-1.120759-1.494345-1.120759-1.120759-1.120759-1.494345-1.120759-1.120759-1.120758-1.494345-0.747173-1.494345-1.120759-1.120759-0.747172-1.867931-1.120759-1.494346v-0.373586l-1.120759-1.494345-0.747173-1.494345-0.747172-1.494345-0.747173-1.494345-0.373586-1.494345-0.747173-1.867932-0.373586-1.494345-0.747172-1.494345-0.373587-1.494345-0.373586-1.867932-0.373586-1.494345-0.373587-1.494345v-1.494345l-0.373586-1.867931v-5.977381l0.373586-1.120759v-1.494345l0.373587-1.120759 0.373586-1.494345 0.373586-1.120759 0.373587-1.120759 0.747172-0.747172 0.373586-1.120759 0.747173-0.747173 0.747173-0.747172 0.747172-1.120759 0.747173-0.373586 0.747172-0.747173 0.747173-0.373586 35.864283-20.920832-0.747173 0.373586-0.747172 0.747173-0.747173 0.747172-0.747172 0.747173-0.747173 0.747173-0.747172 0.747172-0.373587 1.120759-0.747172 1.120759-0.373587 1.120759-0.373586 1.120759-0.373586 1.120758v1.120759l-0.373586 1.494345-0.373587 1.494345v5.977381l0.373587 1.494345v1.494345l0.373586 1.494345 0.373586 1.867932 0.373586 1.494345 0.373587 1.494345 0.747172 1.867931 0.373587 1.494346 0.747172 1.494345 0.373586 1.494345 0.747173 1.494345 0.747173 1.867931 1.120758 1.494346 0.747173 1.494345z" fill="#677475" p-id="5723"></path><path d="M604.462605 667.2251l-1.494345-2.615104-1.867932-2.615104-1.494345-2.615104-2.241517-2.615104-1.867932-2.615104-1.867931-2.615104-1.867932-2.241517-2.241517-2.241518-2.241518-2.241518-1.867932-2.241517-2.241517-1.867932-2.241518-1.867931-2.615104-1.867932-2.241518-1.867931-2.241517-1.494345-2.615104-1.494345-2.241518-1.120759-2.615104-1.120759-2.241518-1.120759-2.241517-0.747172-2.241518-0.747173-2.241518-0.747172-2.241517-0.373587-2.241518-0.373586h-4.109449l-1.867932 0.373586-1.867931 0.373587-1.867931 0.373586-1.867932 0.373586-1.494345 0.747173-1.867931 1.120759-35.864283 20.547245 1.494345-0.747173 1.867931-0.747172 1.867931-0.747173 1.867932-0.373586 1.867931-0.373586h5.977381l2.241518 0.373586 2.241517 0.373586 2.241518 0.373587 2.241518 0.747172 2.241517 1.120759 2.241518 0.747173 2.615104 1.120758 2.241518 1.494346 2.241517 1.494345 2.615104 1.494345 2.241518 1.867931 2.241518 1.494345 2.241517 1.867932 2.241518 2.241518 2.241518 2.241517 2.241517 2.241518 2.241518 2.241518 1.867932 2.241517 1.867931 2.615104 1.867931 2.241518 1.867932 2.615104 1.867931 2.615104 1.867932 2.615104 1.494345 2.98869 0.747172 1.120759 0.747173 1.494345 0.747172 1.494345 0.747173 1.494345 0.747173 1.494346 0.747172 1.120758 0.747173 1.494345 0.373586 1.494346 0.747173 1.494345 0.747172 1.494345 0.373586 1.494345 0.747173 1.494345 0.373586 1.494345 0.373587 1.494345 0.747172 1.494346 0.373586 1.494345 0.373587 1.120758 0.373586 1.494346 0.373586 1.494345 0.373587 1.494345 0.373586 1.494345 0.373586 1.494345 0.373586 1.494345v1.494345l0.373587 1.494346v1.494345l0.373586 1.494345v1.120759l0.373586 1.494345v7.098139l-0.373586 2.615104-0.373586 2.615104-0.373587 2.241518-0.373586 2.615104-0.747172 2.241517-0.747173 1.867932-0.747173 2.241518-1.120758 1.494345-0.747173 1.867931-1.120759 1.494345-1.494345 1.494345-1.120759 1.494345-1.494345 1.120759-1.494345 1.494345-1.494345 0.747173 35.864283-20.547246 1.494345-1.120758 1.494345-1.120759 1.494345-1.120759 1.494345-1.494345 1.120759-1.494345 1.120759-1.494345 1.120759-1.867932 0.747173-1.867931 0.747172-1.867932 0.747173-2.241517 0.747172-2.241518 0.373586-2.241518 0.747173-2.241517v-2.615104l0.373586-2.615104v-7.09814l-0.373586-1.494345v-2.98869l-0.373586-1.494345-0.373587-1.120759v-1.867932l-0.373586-1.120758-0.373586-1.494346-0.373586-1.494345-0.373587-1.494345-0.373586-1.494345-0.373586-1.494345-0.373586-1.494345-0.373587-1.494345-0.373586-1.494345-0.747173-1.494346-0.373586-1.494345-0.747172-1.494345-0.373587-1.494345-0.747172-1.494345-0.373587-1.120759-0.747172-1.494345-0.747173-1.494345-0.747172-1.494345-0.747173-1.494345-0.747172-1.120759-0.747173-1.494345-0.747173-1.494346-0.747172-1.494345z" fill="#30383B" p-id="5724"></path><path d="M568.598322 688.145932a96.011675 96.011675 0 0 0-33.249179-35.11711 32.875593 32.875593 0 0 0-33.249179-3.362277 32.875593 32.875593 0 0 0-13.822693 30.260489 103.856987 103.856987 0 0 0 47.071872 81.441809 28.766144 28.766144 0 0 0 47.071871-27.271798 96.011675 96.011675 0 0 0-13.822692-46.324699z m-14.943452 8.592485a53.049252 53.049252 0 0 1 7.471726 25.403867 15.690624 15.690624 0 0 1-25.777453 14.943451 53.049252 53.049252 0 0 1-18.305728-19.426487 52.675666 52.675666 0 0 1-7.471726-25.03028 18.305728 18.305728 0 0 1 7.471726-16.811383 18.305728 18.305728 0 0 1 18.305728 0 52.675666 52.675666 0 0 1 18.305727 20.920832z" fill="#4E5A5E" p-id="5725"></path><path d="M554.028457 695.617658a50.434148 50.434148 0 0 0-17.558556-18.305728 17.184969 17.184969 0 0 0-17.184968 0 17.184969 17.184969 0 0 0-7.09814 16.06421 50.060562 50.060562 0 0 0 7.09814 23.909522 50.434148 50.434148 0 0 0 17.184968 18.305728 14.943451 14.943451 0 0 0 24.656695-14.196279 50.060562 50.060562 0 0 0-7.098139-25.777453z" fill="#E6EAEB" p-id="5726"></path><path d="M496.869756 640.700474l186.793141-108.340022v27.645385l-105.724918 60.894564h-18.679314l-37.358629 20.920832a29.13973 29.13973 0 0 0-13.075519 21.668005l-8.218899 4.483035V642.194819z" fill="#677475" p-id="5727"></path><path d="M610.813572 750.908428l187.9139-108.340022-0.373587 0.747172v0.747173l-0.373586 0.373586-0.747172 0.747173-187.540314 108.340022 0.373586-0.373587 0.373586-0.747172 0.373587-0.747173v-0.747172zM477.069683 678.059103l11.954761-7.09814-11.954761 7.09814z m86.298431-49.686976l101.615469-58.653046-101.615469 58.653046z" fill="#E6EAEB" p-id="5728"></path><path d="M537.964247 481.552718l186.793141-108.340022v11.581175l20.920832 97.50602a16.811383 16.811383 0 0 0 8.218898 11.581174l21.294418 12.328348c11.954761 7.098139 13.822692 11.954761 14.196279 15.317037v112.075885l-186.793142 108.340022v-112.075885c0-3.735863 0-7.471726-9.339657-12.701934l-25.777453-14.943451a16.811383 16.811383 0 0 1-8.218898-11.581175l-20.920832-97.506019v-10.08683z" fill="#FAC13C" p-id="5729"></path><path d="M767.71981 622.768333l-3.735863-2.241518-1.120758-0.747173-1.120759-0.747172-0.747173-1.120759-0.373586-1.120759-0.747173-1.494345-0.373586-1.494345-0.373586-1.867931v-3.735863l0.373586-1.867932 0.373586-1.867931 0.747173-1.867932 0.373586-2.241517 0.747173-1.867932 1.120759-1.867931 1.120758-1.867931 1.120759-1.867932 1.120759-1.867931 1.120759-1.494345 1.494345-1.494346 1.494345-1.494345 1.494345-1.494345 1.494346-1.120759 1.494345-0.747172 1.867931-1.120759 1.494345-0.373586 1.494345-0.373587 1.494345-0.373586h2.615104l1.120759 0.373586 1.120759 0.747173 3.735863 1.867931-1.120759-0.373586-1.120759-0.373586H783.410434l-1.494345 0.747172-1.494345 0.373587-1.867932 0.747172-1.494345 1.120759-1.494345 1.120759-1.494345 1.494345-1.494345 1.494345-1.494345 1.494345-1.120759 1.494345-1.494345 1.867932-0.747173 1.867931-1.120759 1.867932-1.120758 1.867931-0.747173 1.867931-0.747173 1.867932-0.373586 2.241518-0.373586 1.867931-0.373586 1.867931v3.735863l0.373586 1.867932 0.373586 1.494345 0.373586 1.120759 0.747173 1.120758 0.747173 1.120759 1.120758 1.120759 1.120759 0.747173z" fill="#C5CCD1" p-id="5730"></path><path d="M778.553812 621.647574c-8.592484 4.856622-15.690624 0-15.690623-8.966071a34.743524 34.743524 0 0 1 15.690623-27.271799c8.592484-4.856622 15.690624 0 15.690624 8.966071a34.743524 34.743524 0 0 1-15.690624 27.271799zM816.659613 650.787304v-30.260489l-205.098869 118.426852v30.260488l205.098869-118.426851z" fill="#E6EAEB" p-id="5731"></path><path d="M728.493251 592.88143V635.09668l-10.08683 5.977381V597.738052l10.08683-5.977381zM699.353521 653.775994v-44.456767l11.207588-6.350967v44.830354l-11.207588 5.97738zM692.628968 613.055089l-0.373587 44.830354-10.834002 6.350967v-44.830354l11.207589-6.350967zM735.217804 633.228749v-44.830354l11.207588-6.350967v44.830354l-11.207588 6.350967zM664.23641 674.32324v-44.830354l11.207589-6.350967-0.373587 44.830354-10.834002 6.350967z" fill="#9C9C9C" p-id="5732"></path><path d="M675.443999 623.141919l-11.207589 6.350967v32.12842l10.834002 6.350967 0.373587-44.830354zM692.628968 613.055089l-11.207589 6.350967v32.12842l10.834002 6.350967 0.373587-44.830354zM710.561109 602.96826l-11.207588 6.350967v31.754834l11.207588 6.724553v-44.830354zM728.493251 592.507844l-11.207589 6.350967v32.12842l11.207589 6.350967v-44.830354zM746.425392 582.047428l-11.207588 6.350967v32.12842l11.207588 6.350967v-44.830354z" fill="#677475" p-id="5733"></path><path d="M709.813937 359.016417l-186.793142 108.340022-306.714338-177.079898 186.793142-107.592849h2.98869z" fill="#F0B11D" p-id="5734"></path><path d="M207.340387 463.24699l6.350967 3.362277v20.920832l-6.350967-3.362277v-20.920832z" fill="#FF0000" p-id="5735"></path><path d="M215.932871 465.488508l-2.241517 1.120759v20.920832l2.241517-1.120759v-20.920832z" fill="#AB4032" p-id="5736"></path><path d="M215.932871 465.488508l-3.362276-1.867932v-3.362276l-5.230208 2.98869 6.350967 3.362277 2.241517-1.120759z" fill="#AB4032" p-id="5737"></path><path d="M212.570595 292.518059c0-2.615104 0-3.735863 4.109449-2.241518l306.340751 177.079898a46.698285 46.698285 0 0 1 14.569865 14.196279v7.471726l29.886903 108.713608a16.811383 16.811383 0 0 0 8.218898 11.581175l25.777454 14.943451c7.845312 4.483035 8.966071 7.845312 8.96607 11.207588v112.075885c0 2.615104 0 3.735863-4.109449 2.241518l-13.07552-7.471726a8.966071 8.966071 0 0 1-4.109449-7.098139 112.075885 112.075885 0 0 0-16.06421-53.422839 112.075885 112.075885 0 0 0-37.358628-40.347318 37.358628 37.358628 0 0 0-37.358628-3.735863 37.358628 37.358628 0 0 0-16.06421 35.117111c0 2.615104 0 3.735863-4.10945 2.241517l-122.5363-70.981393a8.966071 8.966071 0 0 1-4.109449-7.09814 120.294783 120.294783 0 0 0-54.543598-93.39657 37.358628 37.358628 0 0 0-37.358628-3.735863 37.358628 37.358628 0 0 0-16.06421 34.743524c0 2.615104 0 3.735863-4.109449 2.241518a53.422838 53.422838 0 0 1-24.283108-41.841664z" fill="#D19917" p-id="5738"></path><path d="M627.998541 703.089383l-3.735863-2.241517-1.120759-0.747173-0.747173-0.747172-0.747172-1.120759-0.747173-1.120759-0.747172-1.494345-0.373587-1.494345v-7.471726l0.373587-1.867931 0.747172-1.867932 0.747173-2.241518 0.747172-1.867931 0.747173-1.867931 1.120759-1.867932 1.120759-1.867931 1.120759-1.494345 1.120758-1.867932 1.494346-1.494345 1.494345-1.494345 1.494345-1.120759 1.494345-1.494345 1.867931-0.747172 1.494345-1.120759 1.494346-0.373587 1.494345-0.373586 1.494345-0.373586h2.615104l1.120759 0.373586 1.120759 0.747173 3.735862 1.867931-1.120759-0.373586-1.120758-0.373586H643.689165l-1.494346 0.373586-1.494345 0.747172-1.494345 0.747173-1.867931 1.120759-1.494345 1.120759-1.494346 1.494345-1.494345 1.494345-1.120758 1.494345-1.494346 1.494345-1.120758 1.867932-1.120759 1.867931-1.120759 1.867931-0.747173 1.867932-1.120759 1.867931-0.373586 2.241518-0.747172 1.867931-0.373587 1.867932v1.867931l-0.373586 1.867932 0.373586 1.867931v1.867931l0.373587 1.494345 0.747172 1.120759 0.373586 1.494345 1.120759 0.747173 0.747173 1.120759 1.120759 0.747172z" fill="#C5CCD1" p-id="5739"></path><path d="M639.206129 701.968625c-8.592484 4.856622-15.690624 0-15.690624-8.966071a34.743524 34.743524 0 0 1 15.690624-27.271799c8.592484-4.856622 15.690624 0 15.690624 8.966071a34.743524 34.743524 0 0 1-15.690624 27.271799z" fill="#E6EAEB" p-id="5740"></path><path d="M611.560744 738.953667l-27.645385-16.064211v30.260489l27.645385 16.06421v-30.260488z" fill="#9C9C9C" p-id="5741"></path><path d="M816.659613 620.526815l-17.932141-10.08683v9.713244l-187.9139 108.340022-18.305728-10.460416-8.592485 4.856621 27.645385 16.064211 205.098869-118.426852z" fill="#C5CCD1" p-id="5742"></path><path d="M559.258665 492.760306l159.894929-92.275811 20.920831 97.132433-160.268515 92.649398-20.547245-97.50602z" fill="#2192FC" p-id="5743"></path><path d="M574.202116 563.7417l80.694637-45.577526 14.943451-27.271799 42.21525-23.535936 22.788763 5.603794 5.230208 24.656695-160.268515 92.649398-5.603794-26.524626z" fill="#2D7DB3" p-id="5744"></path><path d="M776.685881 423.646844l-7.845312-4.483035-23.535936 13.822692 7.471726 4.483036 23.909522-13.822693z" fill="#C5CCD1" p-id="5745"></path><path d="M752.776359 437.469537l-7.471726-4.483036V448.303539l7.09814 33.622765 0.373586 0.373587v-44.830354z" fill="#9C9C9C" p-id="5746"></path><path d="M776.685881 468.477198v-44.830354l-23.909522 13.822693v44.830354l23.909522-13.822693z" fill="#E6EAEB" p-id="5747"></path><path d="M481.552718 469.597957l31.007661 17.932142a27.271799 27.271799 0 0 1 8.592485 8.218898 32.502007 32.502007 0 0 1 4.856622 11.581174l18.305727 86.672018c0 2.98869 0 4.856622-2.615104 4.109449l-59.400218-34.369938a8.966071 8.966071 0 0 1-4.10945-7.098139v-84.804086c-0.747173-2.615104 1.120759-3.362277 3.362277-2.241518z" fill="#2192FC" p-id="5748"></path><path d="M630.987231 406.835462a9.339657 9.339657 0 0 0-18.305728 0v9.713243a4.856622 4.856622 0 0 0 2.615104 3.362276 14.569865 14.569865 0 0 0 13.07552 0 4.856622 4.856622 0 0 0 2.615104-3.362276v-9.713243z" fill="#C0392B" p-id="5749"></path><path d="M612.307917 406.835462z m18.305728 0a8.966071 8.966071 0 0 0-8.218899-8.218899 7.471726 7.471726 0 0 0-7.845311 7.845312v13.449106a14.569865 14.569865 0 0 0 13.075519 0 4.856622 4.856622 0 0 0 2.615104-3.362276z" fill="#E74C3C" p-id="5750"></path><path d="M629.1193 419.537395h-2.615104v-12.328347a9.339657 9.339657 0 0 0-2.241518-5.603794v-1.867932a3.735863 3.735863 0 0 1 3.735863 0 8.218898 8.218898 0 0 1 1.867931 5.230208z" fill="#ED7163" p-id="5751"></path><path d="M659.379788 392.265596a9.339657 9.339657 0 0 0-18.305727 0v9.713244a4.856622 4.856622 0 0 0 2.615104 3.362276 14.569865 14.569865 0 0 0 13.075519 0 4.856622 4.856622 0 0 0 2.615104-3.362276v-9.713244z" fill="#C0392B" p-id="5752"></path><path d="M641.074061 392.265596z m18.305727 0a8.966071 8.966071 0 0 0-8.218898-8.218898 7.471726 7.471726 0 0 0-7.845312 7.845312v13.449106a14.569865 14.569865 0 0 0 13.07552 0 4.856622 4.856622 0 0 0 2.615104-3.362276z" fill="#E74C3C" p-id="5753"></path><path d="M657.885443 404.96753h-2.615104v-12.328347a9.339657 9.339657 0 0 0-2.241517-5.603794v-1.867932a3.735863 3.735863 0 0 1 3.735862 0 8.218898 8.218898 0 0 1 1.867932 5.230208z" fill="#ED7163" p-id="5754"></path><path d="M600.353156 423.273258a9.339657 9.339657 0 0 0-18.305728 0v9.713243a4.856622 4.856622 0 0 0 2.615104 3.362277 14.569865 14.569865 0 0 0 13.07552 0 4.856622 4.856622 0 0 0 2.615104-3.362277v-9.713243z" fill="#C0392B" p-id="5755"></path><path d="M582.047428 423.273258z m18.305728 0a8.966071 8.966071 0 0 0-8.218898-8.218898 7.471726 7.471726 0 0 0-7.845312 7.845312v13.449106a14.569865 14.569865 0 0 0 13.07552 0 4.856622 4.856622 0 0 0 2.615104-3.362277z" fill="#E74C3C" p-id="5756"></path><path d="M597.738052 435.975192h-2.615104v-12.328348a9.339657 9.339657 0 0 0-2.241518-5.603794v-1.867931a3.735863 3.735863 0 0 1 3.735863 0 8.218898 8.218898 0 0 1 1.867931 5.230208z" fill="#ED7163" p-id="5757"></path><path d="M435.975192 443.073331l24.656694 14.196279a9.713243 9.713243 0 0 1 4.483036 7.471725v183.057279c0 2.615104-1.867931 3.735863-4.483036 2.615104l-24.656694-15.317038a9.713243 9.713243 0 0 1-4.483036-7.471726v-183.057278c0-1.867931 1.867931-2.98869 4.483036-1.494345zM389.650493 416.548705l24.656694 14.196279a9.713243 9.713243 0 0 1 4.483036 7.471725v183.057279c0 2.615104-1.867931 3.735863-4.483036 2.615104l-24.656694-14.196279a9.713243 9.713243 0 0 1-4.483036-7.471726v-183.057278c0.373586-2.98869 2.241518-4.109449 4.483036-2.615104zM235.359358 327.261583l54.917183 31.754834a9.713243 9.713243 0 0 1 4.483036 7.471726v71.728566c0 2.615104-1.867931 3.735863-4.483036 2.615104L235.359358 410.944911a9.713243 9.713243 0 0 1-4.483035-7.471726V329.876687c0-2.98869 2.241518-4.109449 4.483035-2.615104zM311.197373 370.971178l54.917184 31.754834a9.713243 9.713243 0 0 1 4.483035 7.471726v71.728566c0 2.615104-1.867931 3.735863-4.483035 2.615104l-54.917184-31.754834a9.713243 9.713243 0 0 1-4.483035-7.471725V373.586282c0-2.98869 1.867931-4.109449 4.483035-2.615104z" fill="#2192FC" p-id="5758"></path><path d="M317.921926 486.782926v-19.0529l2.241518 1.120758v17.184969l8.218898 4.483036v2.241517l-10.460416-5.97738zM298.869026 466.23568c0-2.98869 0-5.230208 2.241518-5.97738a5.230208 5.230208 0 0 1 5.603794 0 14.569865 14.569865 0 0 1 4.109449 3.735863 17.558555 17.558555 0 0 1 3.735863 10.834002 8.966071 8.966071 0 0 1 0 4.483035 3.362277 3.362277 0 0 1-2.98869 0 7.098139 7.098139 0 0 1-4.10945 0 14.196279 14.196279 0 0 1-4.109449-3.735863 17.558555 17.558555 0 0 1-4.483035-4.109449 16.437796 16.437796 0 0 1 0-5.230208z m2.241518 0a12.701934 12.701934 0 0 0 0 6.350967 10.834002 10.834002 0 0 0 4.109449 4.483036 3.735863 3.735863 0 0 0 4.109449 0v-4.856622a14.569865 14.569865 0 0 0 0-4.483035 12.328347 12.328347 0 0 0-1.867932-3.735863l-2.98869-2.615104a4.109449 4.109449 0 0 0-4.109449 0s0.373586 3.362277 0.373586 6.350967zM279.816126 455.401678q0-4.856622 2.241517-5.97738a5.230208 5.230208 0 0 1 5.603794 0 14.569865 14.569865 0 0 1 4.10945 3.735863 16.811383 16.811383 0 0 1 2.615104 5.230207 17.184969 17.184969 0 0 1 0 5.603795 8.966071 8.966071 0 0 1 0 4.483035 3.362277 3.362277 0 0 1-2.988691 0 7.471726 7.471726 0 0 1-4.109449 0 14.569865 14.569865 0 0 1-4.109449-3.735863 17.558555 17.558555 0 0 1-2.615104-5.230208 16.811383 16.811383 0 0 1 0-5.230208z m2.241517 0a13.07552 13.07552 0 0 0 0 6.350967 10.834002 10.834002 0 0 0 4.109449 4.483035 3.735863 3.735863 0 0 0 4.109449 0v-4.856621a14.569865 14.569865 0 0 0 0-4.483036 12.701934 12.701934 0 0 0-1.867931-3.735862l-0.747173-1.120759a4.109449 4.109449 0 0 0-4.109449 0s-1.494345 1.867931-1.494345 4.483035zM258.895294 445.688435L261.510398 448.303539a4.109449 4.109449 0 0 1-2.615104 3.362276 5.230208 5.230208 0 0 1-4.483036 0 14.196279 14.196279 0 0 1-4.483035-3.735862 16.437796 16.437796 0 0 1-2.615104-5.230208 19.800073 19.800073 0 0 1 0-5.603795 8.966071 8.966071 0 0 1 0-4.483035 3.362277 3.362277 0 0 1 2.615104 0 7.471726 7.471726 0 0 1 4.109449 0 12.701934 12.701934 0 0 1 4.109449 3.735863 14.943451 14.943451 0 0 1 2.241518 5.603794h-2.241518a11.954761 11.954761 0 0 0 0-4.109449 8.592484 8.592484 0 0 0-2.615104-2.615104 4.483035 4.483035 0 0 0-2.98869 0 10.08683 10.08683 0 0 0 0 3.362277 16.437796 16.437796 0 0 0 0 4.483035 10.834002 10.834002 0 0 0 1.867931 3.735863L254.038672 448.303539a3.735863 3.735863 0 0 0 2.98869 0 3.362277 3.362277 0 0 0 1.867932-2.615104zM230.502736 429.624225h1.867932a9.339657 9.339657 0 0 0 0 2.615104v2.615104l2.615104 1.867931h2.241517v-1.867931l-2.98869-2.615104-3.362276-2.988691v-2.98869a7.098139 7.098139 0 0 1 0-2.615104 3.362277 3.362277 0 0 1 0-2.241517 2.241518 2.241518 0 0 1 2.241517 0h2.98869l3.362277 2.615103a11.207588 11.207588 0 0 1 2.241518 3.362277 9.713243 9.713243 0 0 1 0 3.362277h-2.241518a7.098139 7.098139 0 0 0 0-3.362277 8.218898 8.218898 0 0 0-2.98869-2.615104h-2.988691a3.735863 3.735863 0 0 0 0 2.241518l3.362277 3.362276 3.735863 3.362277 2.241518 2.98869a7.845312 7.845312 0 0 1 0 2.98869 3.735863 3.735863 0 0 1 0 2.241518 2.615104 2.615104 0 0 1-2.241518 0h-3.362277l-3.735863-2.98869a12.701934 12.701934 0 0 1-2.241517-3.735863 10.834002 10.834002 0 0 1-0.747173-5.603794zM367.982488 537.217074l-141.962787-82.188982v-13.449106l141.962787 81.815396v13.822692zM595.496534 668.345859l-120.294783-69.487048v-13.449107l120.294783 69.487049v13.449106z" fill="#2C3E50" p-id="5759"></path><path d="M545.435972 557.390733l-7.845312-4.483035-23.535935 13.449106 7.471725 4.483035 23.909522-13.449106z" fill="#C5CCD1" p-id="5760"></path><path d="M521.52645 570.839839l-7.471725-4.483035v44.830354l7.471725 4.483035v-44.830354z" fill="#9C9C9C" p-id="5761"></path><path d="M545.435972 601.847501v-44.456768l-23.909522 13.449106v44.830354l23.909522-13.822692z" fill="#E6EAEB" p-id="5762"></path><path d="M557.390733 583.915359l-7.845312-4.483035-4.109449 2.241518v8.96607l11.954761-6.724553z" fill="#C5CCD1" p-id="5763"></path><path d="M557.390733 595.122948v-11.207589l-11.954761 6.724553v11.207589l11.954761-6.724553z" fill="#E6EAEB" p-id="5764"></path><path d="M264.872674 455.775265v-19.052901h2.241518V448.303539l8.218898 4.856622v-8.592485h2.241518v19.0529h-2.241518v-8.592484L266.740606 448.303539v8.592484z" fill="#2C3E50" p-id="5765"></path></svg>
